<svg xmlns="http://www.w3.org/2000/svg" style="display: none;">
  <!-- arrow-left -->
  <symbol id="icon-arrow-left" viewBox="0 0 13 24">
    <path
      d="M11.67 23.31c-.27.001-.52-.104-.71-.293L.29 12.35a.667.667 0 010-.95L10.96.27c.39-.37 1-.36 1.39.02.38.38.39.99.02 1.39L2.41 11.64l9.96 9.96c.39.39.39 1.02 0 1.41a.997.997 0 01-.7.3z"
      fill="currentColor" stroke="currentColor" />
  </symbol>

  <!-- arrow-right -->
  <symbol id="icon-arrow-right" viewBox="0 0 13 24">
    <path
      d="M11.67 23.31c-.27.001-.52-.104-.71-.293L.29 12.35a.667.667 0 010-.95L10.96.27c.39-.37 1-.36 1.39.02.38.38.39.99.02 1.39L2.41 11.64l9.96 9.96c.39.39.39 1.02 0 1.41a.997.997 0 01-.7.3z"
      fill="currentColor" stroke="currentColor" />
  </symbol>

  <!-- cameras -->
  <symbol id="icon-cameras" viewBox="0 0 24 24">
    <g opacity="0.5">
      <path
        d="M5 7H6C6.53043 7 7.03914 6.78929 7.41421 6.41421C7.78929 6.03914 8 5.53043 8 5C8 4.73478 8.10536 4.48043 8.29289 4.29289C8.48043 4.10536 8.73478 4 9 4H15C15.2652 4 15.5196 4.10536 15.7071 4.29289C15.8946 4.48043 16 4.73478 16 5C16 5.53043 16.2107 6.03914 16.5858 6.41421C16.9609 6.78929 17.4696 7 18 7H19C19.5304 7 20.0391 7.21071 20.4142 7.58579C20.7893 7.96086 21 8.46957 21 9V18C21 18.5304 20.7893 19.0391 20.4142 19.4142C20.0391 19.7893 19.5304 20 19 20H5C4.46957 20 3.96086 19.7893 3.58579 19.4142C3.21071 19.0391 3 18.5304 3 18V9C3 8.46957 3.21071 7.96086 3.58579 7.58579C3.96086 7.21071 4.46957 7 5 7Z"
        stroke="white" stroke-width="2" stroke-linecap="round" stroke-linejoin="round" />
      <path
        d="M12 16C13.6569 16 15 14.6569 15 13C15 11.3431 13.6569 10 12 10C10.3431 10 9 11.3431 9 13C9 14.6569 10.3431 16 12 16Z"
        stroke="white" stroke-width="2" stroke-linecap="round" stroke-linejoin="round" />
    </g>
  </symbol>

  <!-- cart -->
  <symbol id="icon-cart" viewBox="0 0 32 32">
    <path
      d="M3 5H7L10 22H26M10 16.6667H25.59C25.7056 16.6667 25.8177 16.6267 25.9072 16.5535C25.9966 16.4802 26.0579 16.3782 26.0806 16.2648L27.8806 7.26479C27.8951 7.19222 27.8934 7.11733 27.8755 7.04552C27.8575 6.97372 27.8239 6.90679 27.7769 6.84956C27.73 6.79234 27.6709 6.74625 27.604 6.71462C27.5371 6.68299 27.464 6.66662 27.39 6.66667H8M12 26C12 26.5523 11.5523 27 11 27C10.4477 27 10 26.5523 10 26C10 25.4477 10.4477 25 11 25C11.5523 25 12 25.4477 12 26ZM26 26C26 26.5523 25.5523 27 25 27C24.4477 27 24 26.5523 24 26C24 25.4477 24.4477 25 25 25C25.5523 25 26 25.4477 26 26Z"
      stroke="black" stroke-width="1.5" stroke-linecap="round" stroke-linejoin="round" />
  </symbol>

  <!-- computers -->
  <symbol id="icon-computers" viewBox="0 0 24 24">
    <g opacity="0.5">
      <path
        d="M7 20H17M9 16V20M15 16V20M3.42857 13.7143H20.5714M4 4H20C20.5523 4 21 4.44772 21 5V15C21 15.5523 20.5523 16 20 16H4C3.44772 16 3 15.5523 3 15V5C3 4.44772 3.44772 4 4 4Z"
        stroke="white" stroke-width="2" stroke-linecap="round" stroke-linejoin="round" />
    </g>
  </symbol>

  <!-- gaming -->
  <symbol id="icon-gaming" viewBox="0 0 24 24">
    <g opacity="0.5">
      <path fill-rule="evenodd" clip-rule="evenodd"
        d="M4 7C3.44772 7 3 7.44772 3 8V16C3 16.5523 3.44772 17 4 17H20C20.5523 17 21 16.5523 21 16V8C21 7.44772 20.5523 7 20 7H4ZM1 8C1 6.34315 2.34315 5 4 5H20C21.6569 5 23 6.34315 23 8V16C23 17.6569 21.6569 19 20 19H4C2.34315 19 1 17.6569 1 16V8Z"
        fill="white" />
      <path fill-rule="evenodd" clip-rule="evenodd"
        d="M8 9C8.55228 9 9 9.44771 9 10V11H10C10.5523 11 11 11.4477 11 12C11 12.5523 10.5523 13 10 13H9V14C9 14.5523 8.55228 15 8 15C7.44772 15 7 14.5523 7 14V13H6C5.44772 13 5 12.5523 5 12C5 11.4477 5.44772 11 6 11H7V10C7 9.44771 7.44772 9 8 9Z"
        fill="white" />
      <path fill-rule="evenodd" clip-rule="evenodd"
        d="M15 9.5C15.8284 9.5 16.5 10.1716 16.5 11V11.0104C16.5 11.8388 15.8284 12.5104 15 12.5104C14.1716 12.5104 13.5 11.8388 13.5 11.0104V11C13.5 10.1716 14.1716 9.5 15 9.5Z"
        fill="white" />
      <path fill-rule="evenodd" clip-rule="evenodd"
        d="M18 11.5C18.8284 11.5 19.5 12.1715 19.5 13V13.0103C19.5 13.8387 18.8284 14.5103 18 14.5103C17.1716 14.5103 16.5 13.8387 16.5 13.0103V13C16.5 12.1715 17.1716 11.5 18 11.5Z"
        fill="white" />
    </g>
  </symbol>

  <!-- hamburger-menu -->
  <symbol id="icon-hamburger-menu" viewBox="0 0 24 24">
    <path d="M3 12H21M3 6H21M3 18H21" stroke="currentColor" stroke-width="2" stroke-linecap="round"
      stroke-linejoin="round" />
  </symbol>

  <!-- headphones -->
  <symbol id="icon-headphones" viewBox="0 0 24 24">
    <g opacity="0.5">
      <path
        d="M4 15V18C4 19.1046 4.89543 20 6 20H7C8.10457 20 9 19.1046 9 18V15C9 13.8954 8.10457 13 7 13H6C4.89543 13 4 13.8954 4 15ZM4 15V12C4 9.87827 4.84285 7.84344 6.34315 6.34315C7.84344 4.84285 9.87827 4 12 4C14.1217 4 16.1566 4.84285 17.6569 6.34315C19.1571 7.84344 20 9.87827 20 12L20 15M20 15C20 13.8954 19.1046 13 18 13H17C15.8954 13 15 13.8954 15 15V18C15 19.1046 15.8954 20 17 20H18C19.1046 20 20 19.1046 20 18V15Z"
        stroke="white" stroke-width="2" stroke-linecap="round" stroke-linejoin="round" />
    </g>
  </symbol>

  <!-- home -->
  <symbol id="icon-home" viewBox="0 0 24 24">
    <path d="M3 9l9-7 9 7v11a2 2 0 01-2 2H5a2 2 0 01-2-2z" stroke="currentColor" stroke-width="2" fill="none" />
    <polyline points="9,22 9,12 15,12 15,22" stroke="#000" stroke-width="2" fill="none" />
  </symbol>

  <!-- logo -->
  <symbol id="icon-logo" viewBox="0 0 96 29">
    <path
      d="M5.42812 9.39935L8.91177 7.39026L6.96725 4.02409H25.2549L16.114 19.862L14.1695 16.49L10.6859 18.505L16.114 27.9044L32.2221 0H0L5.42812 9.39935Z"
      fill="black" />
    <path
      d="M44.736 21.488C43.68 22.76 42.072 23.408 40.152 23.408C36.36 23.408 34.056 20.96 34.056 17.408C34.056 13.88 36.384 11.432 40.152 11.432C41.976 11.432 43.728 12.128 44.784 13.4L42.888 15.392C42.12 14.552 41.28 14.216 40.152 14.216C38.544 14.216 37.152 15.512 37.152 17.408C37.152 19.472 38.448 20.624 40.152 20.624C41.16 20.624 42.312 20.24 42.936 19.448L44.736 21.488Z"
      fill="black" />
    <path
      d="M59.3568 11.72L52.3728 28.28H48.9408L51.1728 23.12L46.3488 11.72H49.7568L52.1568 17.816L52.8528 20L53.5248 17.816L55.9249 11.72H59.3568Z"
      fill="black" />
    <path
      d="M67.2028 14.264C65.4748 14.264 64.2268 15.584 64.2268 17.384C64.2268 19.16 65.4748 20.48 67.2028 20.48C68.8828 20.48 70.0348 19.232 70.0348 17.384C70.0348 15.512 68.8828 14.264 67.2028 14.264ZM61.2268 23V5.408H64.2748V11.672L64.2268 12.488C64.7308 11.816 66.2668 11.432 67.3228 11.432C71.0908 11.432 73.2028 14.192 73.2028 17.384C73.2028 20.984 71.0428 23.312 67.3228 23.312C66.4108 23.312 64.9468 22.88 64.3468 22.16L64.3708 22.808V23H61.2268Z"
      fill="black" />
    <path
      d="M85.8911 21.56C85.0031 22.712 82.9631 23.408 81.2111 23.408C77.3951 23.408 75.2591 20.792 75.2591 17.408C75.2591 13.952 77.3711 11.432 81.0911 11.432C84.7871 11.432 86.8991 13.952 86.8991 17.408C86.8991 17.792 86.8991 18.032 86.8751 18.368H78.3791C78.5471 19.784 79.6031 20.672 81.2111 20.672C82.3631 20.672 83.4431 20.288 84.1151 19.544L85.8911 21.56ZM78.4271 16.304H83.7071C83.5631 15.032 82.5071 14.168 81.0911 14.168C79.6751 14.168 78.5471 15.032 78.4271 16.304Z"
      fill="black" />
    <path
      d="M95.3049 14.552C94.6809 14.336 94.1289 14.264 93.4809 14.264C93.0489 14.264 92.6889 14.288 92.3529 14.432V23H89.2569V12.224C90.1929 11.744 91.8009 11.408 93.3609 11.408C94.0329 11.408 95.2329 11.48 95.9529 11.744L95.3049 14.552Z"
      fill="black" />
  </symbol>

  <!-- phone -->
  <symbol id="icon-phone" viewBox="0 0 24 24">
    <g opacity="0.5">
      <path
        d="M11 2C10.4477 2 10 2.44772 10 3C10 3.55228 10.4477 4 11 4V2ZM13.3438 4C13.896 4 14.3438 3.55228 14.3438 3C14.3438 2.44772 13.896 2 13.3438 2V4ZM13 18.8594C13 18.3071 12.5523 17.8594 12 17.8594C11.4477 17.8594 11 18.3071 11 18.8594H13ZM11 18.8702C11 19.4225 11.4477 19.8702 12 19.8702C12.5523 19.8702 13 19.4225 13 18.8702H11ZM7.3125 2.625V3.625H16.6875V2.625V1.625H7.3125V2.625ZM16.6875 2.625V3.625C16.7824 3.625 16.8594 3.70195 16.8594 3.79688H17.8594H18.8594C18.8594 2.59738 17.887 1.625 16.6875 1.625V2.625ZM17.8594 3.79688H16.8594V20.2031H17.8594H18.8594V3.79688H17.8594ZM17.8594 20.2031H16.8594C16.8594 20.298 16.7824 20.375 16.6875 20.375V21.375V22.375C17.887 22.375 18.8594 21.4026 18.8594 20.2031H17.8594ZM16.6875 21.375V20.375H7.3125V21.375V22.375H16.6875V21.375ZM7.3125 21.375V20.375C7.21758 20.375 7.14062 20.298 7.14062 20.2031H6.14062H5.14062C5.14062 21.4026 6.11301 22.375 7.3125 22.375V21.375ZM6.14062 20.2031H7.14062V3.79688H6.14062H5.14062V20.2031H6.14062ZM6.14062 3.79688H7.14062C7.14062 3.70195 7.21758 3.625 7.3125 3.625V2.625V1.625C6.11301 1.625 5.14062 2.59738 5.14062 3.79688H6.14062ZM11 3V4H13.3438V3V2H11V3ZM12 18.8594H11V18.8702H12H13V18.8594H12ZM6.5 16.5V17.5H17.5V16.5V15.5H6.5V16.5Z"
        fill="#fff" />
    </g>
  </symbol>

  <!-- search -->
  <symbol id="icon-search" viewBox="0 0 24 24">
    <path
      d="M20 20L16.2223 16.2156M18.3158 11.1579C18.3158 13.0563 17.5617 14.8769 16.2193 16.2193C14.8769 17.5617 13.0563 18.3158 11.1579 18.3158C9.2595 18.3158 7.43886 17.5617 6.0965 16.2193C4.75413 14.8769 4 13.0563 4 11.1579C4 9.2595 4.75413 7.43886 6.0965 6.0965C7.43886 4.75413 9.2595 4 11.1579 4C13.0563 4 14.8769 4.75413 16.2193 6.0965C17.5617 7.43886 18.3158 9.2595 18.3158 11.1579V11.1579Z"
      stroke="#989898" stroke-width="1.5" stroke-linecap="round" />
  </symbol>

  <!-- smart-watches -->
  <symbol id="icon-smart-watches" viewBox="0 0 24 24">
    <g opacity="0.5">
      <path fill-rule="evenodd" clip-rule="evenodd"
        d="M4 7C3.44772 7 3 7.44772 3 8V16C3 16.5523 3.44772 17 4 17H20C20.5523 17 21 16.5523 21 16V8C21 7.44772 20.5523 7 20 7H4ZM1 8C1 6.34315 2.34315 5 4 5H20C21.6569 5 23 6.34315 23 8V16C23 17.6569 21.6569 19 20 19H4C2.34315 19 1 17.6569 1 16V8Z"
        fill="white" />
      <path fill-rule="evenodd" clip-rule="evenodd"
        d="M8 9C8.55228 9 9 9.44771 9 10V11H10C10.5523 11 11 11.4477 11 12C11 12.5523 10.5523 13 10 13H9V14C9 14.5523 8.55228 15 8 15C7.44772 15 7 14.5523 7 14V13H6C5.44772 13 5 12.5523 5 12C5 11.4477 5.44772 11 6 11H7V10C7 9.44771 7.44772 9 8 9Z"
        fill="white" />
      <path fill-rule="evenodd" clip-rule="evenodd"
        d="M15 9.5C15.8284 9.5 16.5 10.1716 16.5 11V11.0104C16.5 11.8388 15.8284 12.5104 15 12.5104C14.1716 12.5104 13.5 11.8388 13.5 11.0104V11C13.5 10.1716 14.1716 9.5 15 9.5Z"
        fill="white" />
      <path fill-rule="evenodd" clip-rule="evenodd"
        d="M18 11.5C18.8284 11.5 19.5 12.1715 19.5 13V13.0103C19.5 13.8387 18.8284 14.5103 18 14.5103C17.1716 14.5103 16.5 13.8387 16.5 13.0103V13C16.5 12.1715 17.1716 11.5 18 11.5Z"
        fill="white" />
    </g>
  </symbol>

  <!-- user -->
  <symbol id="icon-user" viewBox="0 0 32 32">
    <path
      d="M24 27V24.3333C24 22.9188 23.5224 21.5623 22.6722 20.5621C21.8221 19.5619 20.669 19 19.4667 19H11.5333C10.331 19 9.17795 19.5619 8.32778 20.5621C7.47762 21.5623 7 22.9188 7 24.3333V27M21 9.5C21 11.9853 18.9853 14 16.5 14C14.0147 14 12 11.9853 12 9.5C12 7.01472 14.0147 5 16.5 5C18.9853 5 21 7.01472 21 9.5Z"
      stroke="black" stroke-width="1.5" stroke-linecap="round" stroke-linejoin="round" />
  </symbol>

  <!-- wishlist -->
  <symbol id="icon-wishlist" viewBox="0 0 32 32">
    <path
      d="M11 7C8.239 7 6 9.216 6 11.95C6 14.157 6.875 19.395 15.488 24.69C15.6423 24.7839 15.8194 24.8335 16 24.8335C16.1806 24.8335 16.3577 24.7839 16.512 24.69C25.125 19.395 26 14.157 26 11.95C26 9.216 23.761 7 21 7C18.239 7 16 10 16 10C16 10 13.761 7 11 7Z"
      stroke="black" stroke-width="1.5" stroke-linecap="round" stroke-linejoin="round" />
  </symbol>

</svg>