<svg xmlns="http://www.w3.org/2000/svg" viewBox="0 0 24 24">
  <path d="M9.42236 0.75C8.71961 0.75 8.48486 0.90825 8.48486 1.6875V2.39025H6.37511C4.98986 2.39025 4.73486 2.646 4.73486 4.0305V21.609C4.73486 22.9942 4.99061 23.2493 6.37511 23.2493H17.6251C19.0104 23.2493 19.2654 22.9935 19.2654 21.609V4.0305C19.2654 2.64525 19.0096 2.39025 17.6251 2.39025H15.5154V1.6875C15.5154 0.909 15.2814 0.75 14.5779 0.75H9.42236ZM6.37511 5.67225C6.37511 3.79725 6.14111 4.032 8.01536 4.032C8.95286 4.032 15.2814 4.032 15.9841 4.032C17.8591 4.032 17.6244 3.798 17.6244 5.67225C17.6244 6.60975 17.6244 19.032 17.6244 19.9695C17.6244 21.8445 17.8584 21.6097 15.9841 21.6097C15.0466 21.6097 8.95286 21.6097 8.01536 21.6097C6.14036 21.6097 6.37511 21.8438 6.37511 19.9695C6.37511 19.0312 6.37511 6.60975 6.37511 5.67225ZM7.54661 8.9535H16.4529C16.7116 8.9535 16.9216 9.1635 16.9216 9.42225V12.0007C16.9216 12.2595 16.7116 12.4695 16.4529 12.4695H7.54661C7.28786 12.4695 7.07786 12.2595 7.07786 12.0007V9.42225C7.07786 9.1635 7.28786 8.9535 7.54661 8.9535ZM7.54661 13.1722H16.4529C16.7116 13.1722 16.9216 13.3822 16.9216 13.641V16.2195C16.9216 16.4782 16.7116 16.6882 16.4529 16.6882H7.54661C7.28786 16.6882 7.07786 16.4782 7.07786 16.2195V13.641C7.07786 13.3822 7.28786 13.1722 7.54661 13.1722ZM7.54661 17.391H16.4529C16.7116 17.391 16.9216 17.601 16.9216 17.8597V20.4382C16.9216 20.697 16.7116 20.907 16.4529 20.907H7.54661C7.28786 20.907 7.07786 20.697 7.07786 20.4382V17.8597C7.07786 17.601 7.28786 17.391 7.54661 17.391Z" fill="currentColor"/>
</svg>