<svg viewBox="0 0 25 24">
  <path fill="currentColor"
    d="M11.4566 15.17C11.2566 15.17 11.0666 15.09 10.9266 14.95L8.50656 12.53C8.21656 12.24 8.21656 11.76 8.50656 11.47C8.79656 11.18 9.27656 11.18 9.56656 11.47L11.4566 13.36L15.7566 9.06003C16.0466 8.77003 16.5266 8.77003 16.8166 9.06003C17.1066 9.35003 17.1066 9.83003 16.8166 10.12L11.9866 14.95C11.8466 15.09 11.6566 15.17 11.4566 15.17Z" />
  <path fill="currentColor"
    d="M12.6664 22.75C12.0364 22.75 11.4064 22.54 10.9164 22.12L9.33639 20.76C9.17639 20.62 8.77639 20.48 8.56639 20.48H6.84639C5.36639 20.48 4.16639 19.28 4.16639 17.8V16.09C4.16639 15.88 4.02639 15.49 3.88639 15.33L2.53639 13.74C1.71639 12.77 1.71639 11.24 2.53639 10.27L3.88639 8.68C4.02639 8.52 4.16639 8.13 4.16639 7.92V6.2C4.16639 4.72 5.36639 3.52 6.84639 3.52H8.57639C8.78639 3.52 9.18639 3.37 9.34639 3.24L10.9264 1.88C11.9064 1.04 13.4364 1.04 14.4164 1.88L15.9964 3.24C16.1564 3.38 16.5564 3.52 16.7664 3.52H18.4664C19.9464 3.52 21.1464 4.72 21.1464 6.2V7.9C21.1464 8.11 21.2964 8.51 21.4364 8.67L22.7964 10.25C23.6364 11.23 23.6364 12.76 22.7964 13.74L21.4364 15.32C21.2964 15.48 21.1464 15.88 21.1464 16.09V17.79C21.1464 19.27 19.9464 20.47 18.4664 20.47H16.7664C16.5564 20.47 16.1564 20.62 15.9964 20.75L14.4164 22.11C13.9264 22.54 13.2964 22.75 12.6664 22.75ZM6.84639 5.02C6.19639 5.02 5.66639 5.55 5.66639 6.2V7.91C5.66639 8.48 5.39639 9.21 5.02639 9.64L3.67639 11.23C3.32639 11.64 3.32639 12.35 3.67639 12.76L5.02639 14.35C5.39639 14.79 5.66639 15.51 5.66639 16.08V17.79C5.66639 18.44 6.19639 18.97 6.84639 18.97H8.57639C9.15639 18.97 9.88639 19.24 10.3264 19.62L11.9064 20.98C12.3164 21.33 13.0364 21.33 13.4464 20.98L15.0264 19.62C15.4664 19.25 16.1964 18.97 16.7764 18.97H18.4764C19.1264 18.97 19.6564 18.44 19.6564 17.79V16.09C19.6564 15.51 19.9264 14.78 20.3064 14.34L21.6664 12.76C22.0164 12.35 22.0164 11.63 21.6664 11.22L20.3064 9.64C19.9264 9.2 19.6564 8.47 19.6564 7.89V6.2C19.6564 5.55 19.1264 5.02 18.4764 5.02H16.7764C16.1964 5.02 15.4664 4.75 15.0264 4.37L13.4464 3.01C13.0364 2.66 12.3164 2.66 11.9064 3.01L10.3264 4.38C9.88639 4.75 9.14639 5.02 8.57639 5.02H6.84639Z" />
</svg>