<svg xmlns="http://www.w3.org/2000/svg" viewBox="0 0 24 24" fill="none">
  <path d="M11.7276 8.27173C12.7532 9.87507 14.1244 11.2374 15.7461 12.2532L8.85648 19.1438C8.43142 19.5689 8.21816 19.7814 7.95707 19.9211C7.69612 20.0607 7.40147 20.1198 6.81254 20.2375L3.73539 20.8528C3.40278 20.9193 3.23625 20.9523 3.14164 20.8577C3.04735 20.7631 3.08011 20.5969 3.14652 20.2649L3.76273 17.1877C3.88062 16.5983 3.9394 16.3033 4.07914 16.0422C4.21887 15.7812 4.43149 15.5688 4.85648 15.1438L11.7276 8.27173ZM16.1114 4.03638C16.6709 3.7591 17.3282 3.75913 17.8877 4.03638C18.1818 4.18211 18.4548 4.45499 19 5.00024C19.5451 5.54527 19.8182 5.81755 19.9639 6.11157C20.2411 6.67105 20.2411 7.32843 19.9639 7.88794C19.8182 8.18203 19.5453 8.45499 19 9.00024L17.2032 10.7961C15.5306 9.84479 14.1454 8.46841 13.1817 6.81763L15 5.00024C15.5451 4.45521 15.8174 4.18215 16.1114 4.03638Z" fill="currentColor"/>
</svg>