<svg viewBox="0 0 17 16" fill="none">
  <path d="M9.18089 3.81794C9.18089 3.98169 9.18089 4.51541 9.18089 5.27366H11.7879L11.5052 7.59763H9.18089C9.18089 11.1816 9.18089 15.9843 9.18089 15.9843H6.09571C6.09571 15.9843 6.09571 11.2452 6.09571 7.59763H4.48811V5.27366H6.09571C6.09571 4.35204 6.09571 3.69669 6.09571 3.51422C6.09571 2.64485 6.03021 2.23235 6.39961 1.55866C6.76921 0.885005 7.81171 -0.00543266 9.6148 0.0160048C11.4183 0.0382236 12.1786 0.211724 12.1786 0.211724L11.7879 2.6885C11.7879 2.6885 10.6362 2.38441 10.071 2.49279C9.50643 2.60119 9.18089 2.94894 9.18089 3.81794Z" fill="currentColor"/>
</svg>