<svg xmlns="http://www.w3.org/2000/svg" viewBox="0 0 20 19" fill="none">
  <path d="M8.88965 1.56738C9.32935 0.623788 10.6706 0.62379 11.1104 1.56738L12.5498 4.65527C12.8742 5.35085 13.5341 5.83049 14.2959 5.92383L17.6768 6.33789C18.71 6.46449 19.1248 7.74043 18.3633 8.4502L15.8711 10.7725C15.3095 11.2959 15.0574 12.0726 15.2041 12.8262L15.8555 16.1699C16.0541 17.1915 14.9688 17.9801 14.0586 17.4756L11.0791 15.8232C10.4077 15.4509 9.59226 15.4509 8.9209 15.8232L5.94141 17.4756C5.03119 17.9801 3.94587 17.1915 4.14453 16.1699L4.7959 12.8262C4.94258 12.0726 4.69051 11.2959 4.12891 10.7725L1.63672 8.4502C0.875184 7.74043 1.28996 6.46449 2.32324 6.33789L5.7041 5.92383C6.46592 5.83049 7.12584 5.35085 7.4502 4.65527L8.88965 1.56738Z" fill="url(#paint0_linear_908_319)" stroke="currentColor"/>
  <defs>
    <linearGradient id="paint0_linear_908_319" x1="9.11898" y1="9.85054" x2="17.8781" y2="9.85054" gradientUnits="userSpaceOnUse">
      <stop offset="0.394791" stop-color="#FFB547"/>
      <stop offset="0.394891" stop-color="#FFB547" stop-opacity="0"/>
    </linearGradient>
  </defs>
</svg>