<svg viewBox="0 0 17 16" fill="none">
  <path d="M12.5503 3.358C11.8909 2.59144 11.5455 1.60104 11.573 0.592723L9.10916 0.533203C9.10916 0.533203 9.10916 0.638323 9.10916 0.780083V10.6602C9.14356 13.786 4.205 13.7102 4.59572 10.2551C4.8346 8.88136 6.31076 8.03592 7.62244 8.51384V5.99992C4.76676 5.50264 2.06052 7.7756 2.089 10.6713C2.3386 16.9513 11.346 16.9521 11.5959 10.6713C11.533 10.4465 11.5682 6.26152 11.5592 5.90856C12.6796 6.60568 13.9831 6.95416 15.3032 6.90952V4.3132C14.0828 4.3132 13.1514 3.98872 12.5503 3.358Z" fill="currentColor"/>
</svg>