<svg viewBox="0 0 16 16">
  <path
    d="M8 14.6667c-1.4295 0-2.4582-0.0007-3.2602-0.0785-0.7928-0.0767-1.3-0.2245-1.7048-0.4787-0.4626-0.2906-0.8537-0.6817-1.1443-1.1443-0.2542-0.4048-0.4019-0.912-0.4787-1.7048C1.3333 10.4583 1.3333 9.4297 1.3333 8s0.0007-2.4583 0.0785-3.2603c0.0768-0.7928 0.2245-1.3 0.4787-1.7048C2.1814 2.5726 2.5725 2.1814 3.0351 1.8908c0.4048-0.2542 0.912-0.4019 1.7048-0.4787C5.5417 1.3335 6.5704 1.3335 8 1.3335s2.4583 0.0007 3.2603 0.0786c0.7928 0.0768 1.3 0.2245 1.7047 0.4787 0.4626 0.2906 0.8538 0.6818 1.1444 1.1444 0.2542 0.4048 0.4019 0.912 0.4786 1.7048 0.078 0.802 0.0787 1.8307 0.0787 3.2602s-0.0007 2.4583-0.0787 3.2604c-0.0767 0.7928-0.2244 1.3-0.4786 1.7047-0.2906 0.4626-0.6818 0.8539-1.1444 1.1445-0.4047 0.2542-0.9119 0.4019-1.7047 0.4786-0.8021 0.078-1.8308 0.0787-3.2603 0.0787z"
    fill="currentColor" stroke="currentColor" stroke-width="2" />
  <path
    d="M8 11.3333c1.4728 0 2.6667-1.1939 2.6667-2.6667S9.4728 6 8 6 5.3333 7.1939 5.3333 8.6667 6.5272 11.3333 8 11.3333z"
    fill="currentColor" stroke="black" stroke-width="2" />
  <circle cx="11.25" cy="4.75" r="0.75" fill="black" />
</svg>