<svg xmlns="http://www.w3.org/2000/svg" style="display: none;">
  <symbol id="icon-address" viewBox="0 0 24 24">
    <rect width="24" height="24" rx="12" fill="black"/><path d="M11.6953 4.5C10.945 4.50031 10.2022 4.64878 9.50951 4.93691C8.81679 5.22503 8.1878 5.64712 7.65864 6.17896C7.12948 6.7108 6.71056 7.34191 6.42594 8.03607C6.14131 8.73023 5.99658 9.47376 6.00006 10.224C6.00006 14.1792 10.0801 17.8056 11.3353 18.7656C11.4406 18.8526 11.573 18.9002 11.7097 18.9002C11.8463 18.9002 11.9787 18.8526 12.0841 18.7656C13.3417 17.7768 17.3881 14.1792 17.3881 10.224C17.3915 9.47397 17.2469 8.73063 16.9624 8.03662C16.6779 7.34262 16.2592 6.71162 15.7303 6.17981C15.2014 5.648 14.5727 5.22586 13.8803 4.9376C13.1878 4.64933 12.4453 4.50062 11.6953 4.5ZM11.6953 12.5904C11.2206 12.5904 10.7566 12.4496 10.3619 12.1859C9.96721 11.9222 9.6596 11.5474 9.47795 11.1088C9.2963 10.6703 9.24877 10.1877 9.34138 9.72218C9.43398 9.25663 9.66256 8.82899 9.9982 8.49334C10.3339 8.1577 10.7615 7.92912 11.227 7.83652C11.6926 7.74391 12.1752 7.79144 12.6137 7.97309C13.0522 8.15474 13.4271 8.46235 13.6908 8.85703C13.9545 9.25171 14.0953 9.71573 14.0953 10.1904C14.0953 10.8269 13.8424 11.4374 13.3923 11.8875C12.9422 12.3375 12.3318 12.5904 11.6953 12.5904Z" fill="currentColor"/>
  </symbol>
  <symbol id="icon-arrow-down" viewBox="0 0 24 24">
    <path d="M18 9L12 15L6 9" stroke="currentColor"/>
  </symbol>
  <symbol id="icon-arrow-left" viewBox="0 0 24 24">
    <path d="M21.3334 27.6667C21.068 27.6679 20.8132 27.5622 20.6267 27.3733L9.96006 16.7067C9.57012 16.3162 9.57012 15.6838 9.96006 15.2933L20.6267 4.62667C21.0207 4.25952 21.6347 4.27035 22.0156 4.65117C22.3964 5.03199 22.4072 5.64599 22.0401 6.04L12.0801 16L22.0401 25.96C22.43 26.3504 22.43 26.9829 22.0401 27.3733C21.8535 27.5622 21.5988 27.6679 21.3334 27.6667Z" fill="currentColor"/>
  </symbol>
  <symbol id="icon-arrow-right" viewBox="0 0 24 24">
    <path d="M10.6666 4.33333C10.932 4.33208 11.1868 4.43782 11.3733 4.62667L22.0399 15.2933C22.4299 15.6838 22.4299 16.3162 22.0399 16.7067L11.3733 27.3733C10.9793 27.7405 10.3653 27.7296 9.98445 27.3488C9.60363 26.968 9.5928 26.354 9.95994 25.96L19.9199 16L9.95994 6.04C9.57001 5.64958 9.57001 5.01709 9.95994 4.62667C10.1465 4.43782 10.4012 4.33208 10.6666 4.33333Z" fill="currentColor"/>
  </symbol>
  <symbol id="icon-arrow-up" viewBox="0 0 24 24">
    <path d="M6 15L12 9L18 15" stroke="currentColor"/>
  </symbol>
  <symbol id="icon-battery" viewBox="0 0 24 24">
    <path d="M9.42236 0.75C8.71961 0.75 8.48486 0.90825 8.48486 1.6875V2.39025H6.37511C4.98986 2.39025 4.73486 2.646 4.73486 4.0305V21.609C4.73486 22.9942 4.99061 23.2493 6.37511 23.2493H17.6251C19.0104 23.2493 19.2654 22.9935 19.2654 21.609V4.0305C19.2654 2.64525 19.0096 2.39025 17.6251 2.39025H15.5154V1.6875C15.5154 0.909 15.2814 0.75 14.5779 0.75H9.42236ZM6.37511 5.67225C6.37511 3.79725 6.14111 4.032 8.01536 4.032C8.95286 4.032 15.2814 4.032 15.9841 4.032C17.8591 4.032 17.6244 3.798 17.6244 5.67225C17.6244 6.60975 17.6244 19.032 17.6244 19.9695C17.6244 21.8445 17.8584 21.6097 15.9841 21.6097C15.0466 21.6097 8.95286 21.6097 8.01536 21.6097C6.14036 21.6097 6.37511 21.8438 6.37511 19.9695C6.37511 19.0312 6.37511 6.60975 6.37511 5.67225ZM7.54661 8.9535H16.4529C16.7116 8.9535 16.9216 9.1635 16.9216 9.42225V12.0007C16.9216 12.2595 16.7116 12.4695 16.4529 12.4695H7.54661C7.28786 12.4695 7.07786 12.2595 7.07786 12.0007V9.42225C7.07786 9.1635 7.28786 8.9535 7.54661 8.9535ZM7.54661 13.1722H16.4529C16.7116 13.1722 16.9216 13.3822 16.9216 13.641V16.2195C16.9216 16.4782 16.7116 16.6882 16.4529 16.6882H7.54661C7.28786 16.6882 7.07786 16.4782 7.07786 16.2195V13.641C7.07786 13.3822 7.28786 13.1722 7.54661 13.1722ZM7.54661 17.391H16.4529C16.7116 17.391 16.9216 17.601 16.9216 17.8597V20.4382C16.9216 20.697 16.7116 20.907 16.4529 20.907H7.54661C7.28786 20.907 7.07786 20.697 7.07786 20.4382V17.8597C7.07786 17.601 7.28786 17.391 7.54661 17.391Z" fill="currentColor"/>
  </symbol>
  <symbol id="icon-cameras" viewBox="0 0 48 48">
    <g>
    <path d="M10 14H12C13.0609 14 14.0783 13.5786 14.8284 12.8284C15.5786 12.0783 16 11.0609 16 10C16 9.46957 16.2107 8.96086 16.5858 8.58579C16.9609 8.21071 17.4696 8 18 8H30C30.5304 8 31.0391 8.21071 31.4142 8.58579C31.7893 8.96086 32 9.46957 32 10C32 11.0609 32.4214 12.0783 33.1716 12.8284C33.9217 13.5786 34.9391 14 36 14H38C39.0609 14 40.0783 14.4214 40.8284 15.1716C41.5786 15.9217 42 16.9391 42 18V36C42 37.0609 41.5786 38.0783 40.8284 38.8284C40.0783 39.5786 39.0609 40 38 40H10C8.93913 40 7.92172 39.5786 7.17157 38.8284C6.42143 38.0783 6 37.0609 6 36V18C6 16.9391 6.42143 15.9217 7.17157 15.1716C7.92172 14.4214 8.93913 14 10 14" stroke="cuurentColor" stroke-width="2" stroke-linecap="round" stroke-linejoin="round"/>
    <path d="M24 32C27.3137 32 30 29.3137 30 26C30 22.6863 27.3137 20 24 20C20.6863 20 18 22.6863 18 26C18 29.3137 20.6863 32 24 32Z" stroke="cuurentColor" stroke-width="2" stroke-linecap="round" stroke-linejoin="round"/>
  </g>
  </symbol>
  <symbol id="icon-cancel" viewBox="0 0 24 24">
    <path d="M18 6L6 18" stroke="currentColor" stroke-linecap="round" stroke-linejoin="round"/><path d="M6 6L18 18" stroke="currentColor" stroke-linecap="round" stroke-linejoin="round"/>
  </symbol>
  <symbol id="icon-cart" viewBox="0 0 32 32">
    <path d="M3 5H7L10 22H26M10 16.6667H25.59C25.7056 16.6667 25.8177 16.6267 25.9072 16.5535C25.9966 16.4802 26.0579 16.3782 26.0806 16.2648L27.8806 7.26479C27.8951 7.19222 27.8934 7.11733 27.8755 7.04552C27.8575 6.97372 27.8239 6.90679 27.7769 6.84956C27.73 6.79234 27.6709 6.74625 27.604 6.71462C27.5371 6.68299 27.464 6.66662 27.39 6.66667H8M12 26C12 26.5523 11.5523 27 11 27C10.4477 27 10 26.5523 10 26C10 25.4477 10.4477 25 11 25C11.5523 25 12 25.4477 12 26ZM26 26C26 26.5523 25.5523 27 25 27C24.4477 27 24 26.5523 24 26C24 25.4477 24.4477 25 25 25C25.5523 25 26 25.4477 26 26Z" stroke="currentColor" stroke-width="1.5" stroke-linecap="round" stroke-linejoin="round"/>
  </symbol>
  <symbol id="icon-clock" viewBox="0 0 25 24">
    <path fill="currentColor" d="M11.4566 15.17C11.2566 15.17 11.0666 15.09 10.9266 14.95L8.50656 12.53C8.21656 12.24 8.21656 11.76 8.50656 11.47C8.79656 11.18 9.27656 11.18 9.56656 11.47L11.4566 13.36L15.7566 9.06003C16.0466 8.77003 16.5266 8.77003 16.8166 9.06003C17.1066 9.35003 17.1066 9.83003 16.8166 10.12L11.9866 14.95C11.8466 15.09 11.6566 15.17 11.4566 15.17Z"/><path fill="currentColor" d="M12.6664 22.75C12.0364 22.75 11.4064 22.54 10.9164 22.12L9.33639 20.76C9.17639 20.62 8.77639 20.48 8.56639 20.48H6.84639C5.36639 20.48 4.16639 19.28 4.16639 17.8V16.09C4.16639 15.88 4.02639 15.49 3.88639 15.33L2.53639 13.74C1.71639 12.77 1.71639 11.24 2.53639 10.27L3.88639 8.68C4.02639 8.52 4.16639 8.13 4.16639 7.92V6.2C4.16639 4.72 5.36639 3.52 6.84639 3.52H8.57639C8.78639 3.52 9.18639 3.37 9.34639 3.24L10.9264 1.88C11.9064 1.04 13.4364 1.04 14.4164 1.88L15.9964 3.24C16.1564 3.38 16.5564 3.52 16.7664 3.52H18.4664C19.9464 3.52 21.1464 4.72 21.1464 6.2V7.9C21.1464 8.11 21.2964 8.51 21.4364 8.67L22.7964 10.25C23.6364 11.23 23.6364 12.76 22.7964 13.74L21.4364 15.32C21.2964 15.48 21.1464 15.88 21.1464 16.09V17.79C21.1464 19.27 19.9464 20.47 18.4664 20.47H16.7664C16.5564 20.47 16.1564 20.62 15.9964 20.75L14.4164 22.11C13.9264 22.54 13.2964 22.75 12.6664 22.75ZM6.84639 5.02C6.19639 5.02 5.66639 5.55 5.66639 6.2V7.91C5.66639 8.48 5.39639 9.21 5.02639 9.64L3.67639 11.23C3.32639 11.64 3.32639 12.35 3.67639 12.76L5.02639 14.35C5.39639 14.79 5.66639 15.51 5.66639 16.08V17.79C5.66639 18.44 6.19639 18.97 6.84639 18.97H8.57639C9.15639 18.97 9.88639 19.24 10.3264 19.62L11.9064 20.98C12.3164 21.33 13.0364 21.33 13.4464 20.98L15.0264 19.62C15.4664 19.25 16.1964 18.97 16.7764 18.97H18.4764C19.1264 18.97 19.6564 18.44 19.6564 17.79V16.09C19.6564 15.51 19.9264 14.78 20.3064 14.34L21.6664 12.76C22.0164 12.35 22.0164 11.63 21.6664 11.22L20.3064 9.64C19.9264 9.2 19.6564 8.47 19.6564 7.89V6.2C19.6564 5.55 19.1264 5.02 18.4764 5.02H16.7764C16.1964 5.02 15.4664 4.75 15.0264 4.37L13.4464 3.01C13.0364 2.66 12.3164 2.66 11.9064 3.01L10.3264 4.38C9.88639 4.75 9.14639 5.02 8.57639 5.02H6.84639Z"/>
  </symbol>
  <symbol id="icon-computers" viewBox="0 0 48 48">
    <g>
    <path d="M40 8H8C6.89543 8 6 8.89543 6 10V30C6 31.1046 6.89543 32 8 32H40C41.1046 32 42 31.1046 42 30V10C42 8.89543 41.1046 8 40 8Z" stroke="currentColor" stroke-width="2" stroke-linecap="round" stroke-linejoin="round"/>
    <path d="M14 40H34" stroke="currentColor" stroke-width="2" stroke-linecap="round" stroke-linejoin="round"/>
    <path d="M18 32V40" stroke="currentColor" stroke-width="2" stroke-linecap="round" stroke-linejoin="round"/>
    <path d="M30 32V40" stroke="currentColor" stroke-width="2" stroke-linecap="round" stroke-linejoin="round"/>
    <path d="M6.85712 27.4286H41.1428" stroke="currentColor" stroke-width="2" stroke-linecap="round"/>
  </g>
  </symbol>
  <symbol id="icon-cores" viewBox="0 0 24 24">
    <path d="M7 11C7 9.11438 7 8.17157 7.58579 7.58579C8.17157 7 9.11438 7 11 7H13C14.8856 7 15.8284 7 16.4142 16.4142C15.8284 17 14.8856 17 13 17H11C9.11438 17 8.17157 17 7.58579 16.4142C7 15.8284 7 14.8856 7 13V11Z" stroke="currentColor" stroke-linecap="round"/><path d="M13 10H11C10.4477 10 10 10.4477 10 11V13C10 13.5523 10.4477 14 11 14H13C13.5523 14 14 13.5523 14 13V11C14 10.4477 13.5523 10 13 10Z" fill="currentColor"/><path d="M10 7V4" stroke="currentColor" stroke-linecap="round"/><path d="M14 7V4" stroke="currentColor" stroke-linecap="round"/><path d="M17 10H20" stroke="currentColor" stroke-linecap="round"/><path d="M17 14H20" stroke="currentColor" stroke-linecap="round"/><path d="M10 20V17" stroke="currentColor" stroke-linecap="round"/><path d="M14 20V17" stroke="currentColor" stroke-linecap="round"/><path d="M4 10H7" stroke="currentColor" stroke-linecap="round"/><path d="M4 14H7" stroke="currentColor" stroke-linecap="round"/>
  </symbol>
  <symbol id="icon-cpu" viewBox="0 0 24 24">
    <path fill="currentColor" d="M12 3C12.3853 3 12.6977 3.31236 12.6977 3.69767V6.48884C13.2084 6.48991 13.6717 6.49342 14.0932 6.50495L14.093 6.48837V3.69767C14.093 3.31236 14.4054 3 14.7907 3C15.176 3 15.4884 3.31236 15.4884 3.69767V6.48837C15.4884 6.52487 15.4856 6.56072 15.4802 6.5957C16.4162 6.71067 17.0648 6.94879 17.558 7.44198C18.0512 7.93517 18.2893 8.58381 18.4043 9.51984C18.4393 9.51443 18.4751 9.51163 18.5116 9.51163H21.3023C21.6876 9.51163 22 9.82399 22 10.2093C22 10.5946 21.6876 10.907 21.3023 10.907H18.5116L18.495 10.9068C18.5066 11.3283 18.5106 11.7916 18.5116 12.3023H21.3023C21.6876 12.3023 22 12.6147 22 13C22 13.3853 21.6876 13.6977 21.3023 13.6977H18.5112C18.5101 14.2084 18.5066 14.6717 18.495 15.0932L18.5116 15.093H21.3023C21.6876 15.093 22 15.4054 22 15.7907C22 16.176 21.6876 16.4884 21.3023 16.4884H18.5116C18.4751 16.4884 18.4393 16.4856 18.4043 16.4802C18.2893 17.4162 18.0512 18.0648 17.558 18.558C17.0648 19.0512 16.4162 19.2893 15.4802 19.4043C15.4856 19.4393 15.4884 19.4751 15.4884 19.5116V22.3023C15.4884 22.6876 15.176 23 14.7907 23C14.4054 23 14.093 22.6876 14.093 22.3023V19.5116L14.0932 19.495C13.6717 19.5066 13.2084 19.5106 12.6977 19.5116V22.3023C12.6977 22.6876 12.3853 23 12 23C11.6147 23 11.3023 22.6876 11.3023 22.3023V19.5112C10.7916 19.5101 10.3283 19.5066 9.90678 19.495L9.90698 19.5116V22.3023C9.90698 22.6876 9.59462 23 9.2093 23C8.82399 23 8.51163 22.6876 8.51163 22.3023V19.5116C8.51163 19.4751 8.51443 19.4393 8.51984 19.4043C7.58381 19.2893 6.93517 19.0512 6.44198 18.558C5.94879 18.0648 5.71067 17.4162 5.5957 16.4802C5.56071 16.4856 5.52487 16.4884 5.48837 16.4884H2.69767C2.31236 16.4884 2 16.176 2 15.7907C2 15.4054 2.31236 15.093 2.69767 15.093H5.48837L5.50495 15.0932C5.49342 14.6717 5.48944 14.2084 5.48837 13.6977H2.69767C2.31236 13.6977 2 13.3853 2 13C2 12.6147 2.31236 12.3023 2.69767 12.3023H5.48884C5.48991 11.7916 5.49342 11.3283 5.50495 10.9068L5.48837 10.907H2.69767C2.31236 10.907 2 10.5946 2 10.2093C2 9.82399 2.31236 9.51163 2.69767 9.51163H5.48837C5.52487 9.51163 5.56071 9.51443 5.5957 9.51984C5.71067 8.58381 5.94879 7.93517 6.44198 7.44198C6.93517 6.94879 7.58381 6.71067 8.51984 6.5957C8.51443 6.56072 8.51163 6.52487 8.51163 6.48837V3.69767C8.51163 3.31236 8.82399 3 9.2093 3C9.59462 3 9.90698 3.31236 9.90698 3.69767V6.48837L9.90678 6.50495C10.3283 6.49342 10.7916 6.48944 11.3023 6.48837V3.69767C11.3023 3.31236 11.6147 3 12 3ZM11.0238 8.5814C10.4054 8.58136 9.87247 8.58133 9.44573 8.63871C8.98839 8.70019 8.55001 8.83885 8.19443 9.19443C7.83885 9.55001 7.70019 9.98839 7.63871 10.4457C7.58133 10.8725 7.58136 11.4054 7.5814 12.0238V13.9762C7.58136 14.5946 7.58133 15.1275 7.63871 15.5543C7.70019 16.0116 7.83885 16.45 8.19443 16.8056C8.55001 17.1612 8.98839 17.2998 9.44573 17.3613C9.87247 17.4187 10.4054 17.4186 11.0238 17.4186H12.9762C13.5946 17.4186 14.1275 17.4187 14.5543 17.3613C15.0116 17.2998 15.45 17.1612 15.8056 16.8056C16.1612 16.45 16.2998 16.0116 16.3613 15.5543C16.4187 15.1275 16.4186 14.5946 16.4186 13.9762V12.0238C16.4186 11.4054 16.4187 10.8725 16.3613 10.4457C16.2998 9.98839 16.1612 9.55001 15.8056 9.19443C15.45 8.83885 15.0116 8.70019 14.5543 8.63871C14.1275 8.58133 13.5947 8.58136 12.9762 8.5814H11.0238Z"/><path fill="currentColor" d="M9.18091 10.1809C9.23402 10.1278 9.32886 10.0621 9.63147 10.0214C9.95415 9.97804 10.3921 9.97656 11.0696 9.97656H12.9301C13.6075 9.97656 14.0455 9.97804 14.3682 10.0214C14.6708 10.0621 14.7656 10.1278 14.8187 10.1809C14.8718 10.234 14.9375 10.3289 14.9782 10.6315C15.0216 10.9542 15.0231 11.3921 15.0231 12.0696V13.9301C15.0231 14.6075 15.0216 15.0455 14.9782 15.3682C14.9375 15.6708 14.8718 15.7656 14.8187 15.8187C14.7656 15.8718 14.6708 15.9375 14.3682 15.9782C14.0455 16.0216 13.6075 16.0231 12.9301 16.0231H11.0696C10.3921 16.0231 9.95415 16.0216 9.63147 15.9782C9.32886 15.9375 9.23402 15.8718 9.18091 15.8187C9.1278 15.7656 9.06211 15.6708 9.02143 15.3682C8.97804 15.0455 8.97656 14.6075 8.97656 13.9301V12.0696C8.97656 11.3921 8.97804 10.9542 9.02143 10.6315C9.06211 10.3289 9.1278 10.234 9.18091 10.1809Z"/>
  </symbol>
  <symbol id="icon-edit" viewBox="0 0 24 24">
    <path d="M11.7276 8.27173C12.7532 9.87507 14.1244 11.2374 15.7461 12.2532L8.85648 19.1438C8.43142 19.5689 8.21816 19.7814 7.95707 19.9211C7.69612 20.0607 7.40147 20.1198 6.81254 20.2375L3.73539 20.8528C3.40278 20.9193 3.23625 20.9523 3.14164 20.8577C3.04735 20.7631 3.08011 20.5969 3.14652 20.2649L3.76273 17.1877C3.88062 16.5983 3.9394 16.3033 4.07914 16.0422C4.21887 15.7812 4.43149 15.5688 4.85648 15.1438L11.7276 8.27173ZM16.1114 4.03638C16.6709 3.7591 17.3282 3.75913 17.8877 4.03638C18.1818 4.18211 18.4548 4.45499 19 5.00024C19.5451 5.54527 19.8182 5.81755 19.9639 6.11157C20.2411 6.67105 20.2411 7.32843 19.9639 7.88794C19.8182 8.18203 19.5453 8.45499 19 9.00024L17.2032 10.7961C15.5306 9.84479 14.1454 8.46841 13.1817 6.81763L15 5.00024C15.5451 4.45521 15.8174 4.18215 16.1114 4.03638Z" fill="currentColor"/>
  </symbol>
  <symbol id="icon-elipse-color" viewBox="0 0 32 32">
    <circle cx="16" cy="16" r="16" fill="currentColor"/>
  </symbol>
  <symbol id="icon-elipse-scroll-end" viewBox="0 0 12 12">
    <circle cx="6" cy="6" r="6" fill="currentColor"/>
  </symbol>
  <symbol id="icon-elipse-scroll-start" viewBox="0 0 12 12">
    <circle cx="6" cy="6" r="6" fill="currentColor"/>
  </symbol>
  <symbol id="icon-facebook" viewBox="0 0 17 16">
    <path d="M9.18089 3.81794C9.18089 3.98169 9.18089 4.51541 9.18089 5.27366H11.7879L11.5052 7.59763H9.18089C9.18089 11.1816 9.18089 15.9843 9.18089 15.9843H6.09571C6.09571 15.9843 6.09571 11.2452 6.09571 7.59763H4.48811V5.27366H6.09571C6.09571 4.35204 6.09571 3.69669 6.09571 3.51422C6.09571 2.64485 6.03021 2.23235 6.39961 1.55866C6.76921 0.885005 7.81171 -0.00543266 9.6148 0.0160048C11.4183 0.0382236 12.1786 0.211724 12.1786 0.211724L11.7879 2.6885C11.7879 2.6885 10.6362 2.38441 10.071 2.49279C9.50643 2.60119 9.18089 2.94894 9.18089 3.81794Z" fill="currentColor"/>
  </symbol>
  <symbol id="icon-gaming" viewBox="0 0 48 48">
    <g>
    <path d="M40 12H8C5.79086 12 4 13.7909 4 16V32C4 34.2091 5.79086 36 8 36H40C42.2091 36 44 34.2091 44 32V16C44 13.7909 42.2091 12 40 12Z" stroke="currentColor" stroke-width="2" stroke-linecap="round" stroke-linejoin="round"/>
    <path d="M12 24H20M16 20V28" stroke="currentColor" stroke-width="2" stroke-linecap="round" stroke-linejoin="round"/>
    <path d="M30 22V22.0207" stroke="currentColor" stroke-width="3" stroke-linecap="round" stroke-linejoin="round"/>
    <path d="M36 25.9999V26.0206" stroke="currentColor" stroke-width="3" stroke-linecap="round" stroke-linejoin="round"/>
  </g>
  </symbol>
  <symbol id="icon-hamburger-menu" viewBox="0 0 24 24">
    <path d="M3 12H21M3 6H21M3 18H21" stroke="currentColor" stroke-width="2" stroke-linecap="round" stroke-linejoin="round"/>
  </symbol>
  <symbol id="icon-headphones" viewBox="0 0 48 48">
    <g>
    <path d="M14 26H12C9.79086 26 8 27.7909 8 30V36C8 38.2091 9.79086 40 12 40H14C16.2091 40 18 38.2091 18 36V30C18 27.7909 16.2091 26 14 26Z" stroke="currentColor" stroke-width="2" stroke-linecap="round" stroke-linejoin="round"/>
    <path d="M36 26H34C31.7909 26 30 27.7909 30 30V36C30 38.2091 31.7909 40 34 40H36C38.2091 40 40 38.2091 40 36V30C40 27.7909 38.2091 26 36 26Z" stroke="currentColor" stroke-width="2" stroke-linecap="round" stroke-linejoin="round"/>
    <path d="M8 30V24C8 19.7565 9.68571 15.6869 12.6863 12.6863C15.6869 9.68571 19.7565 8 24 8C28.2435 8 32.3131 9.68571 35.3137 12.6863C38.3143 15.6869 40 19.7565 40 24V30" stroke="currentColor" stroke-width="2" stroke-linecap="round" stroke-linejoin="round"/>
  </g>
  </symbol>
  <symbol id="icon-home" viewBox="0 0 24 24">
    <path d="M3 9l9-7 9 7v11a2 2 0 01-2 2H5a2 2 0 01-2-2z" stroke="currentColor" stroke-width="2" fill="none"/><polyline points="9,22 9,12 15,12 15,22" stroke="currentColor" stroke-width="2" fill="none"/>
  </symbol>
  <symbol id="icon-like" viewBox="0 0 32 32">
    <path d="M5.93424 18.5443L15.3153 27.3569C15.6398 27.6616 15.802 27.814 16 27.814C16.198 27.814 16.3602 27.6616 16.6847 27.3569L26.0658 18.5443C28.674 16.0942 28.9907 12.0622 26.7971 9.2348L26.3846 8.70316C23.7604 5.32081 18.4928 5.88806 16.6489 9.75157C16.3884 10.2973 15.6116 10.2973 15.3511 9.75157C13.5072 5.88806 8.23964 5.32081 5.6154 8.70316L5.20293 9.2348C3.00927 12.0622 3.32601 16.0942 5.93424 18.5443Z" stroke="currentColor" stroke-linecap="round" stroke-linejoin="round"/>
  </symbol>
  <symbol id="icon-logo" viewBox="0 0 96 29">
    <path d="M5.42812 9.39935L8.91177 7.39026L6.96725 4.02409H25.2549L16.114 19.862L14.1695 16.49L10.6859 18.505L16.114 27.9044L32.2221 0H0L5.42812 9.39935Z" fill="currentColor"/><path d="M44.736 21.488C43.68 22.76 42.072 23.408 40.152 23.408C36.36 23.408 34.056 20.96 34.056 17.408C34.056 13.88 36.384 11.432 40.152 11.432C41.976 11.432 43.728 12.128 44.784 13.4L42.888 15.392C42.12 14.552 41.28 14.216 40.152 14.216C38.544 14.216 37.152 15.512 37.152 17.408C37.152 19.472 38.448 20.624 40.152 20.624C41.16 20.624 42.312 20.24 42.936 19.448L44.736 21.488Z" fill="currentColor"/><path d="M59.3568 11.72L52.3728 28.28H48.9408L51.1728 23.12L46.3488 11.72H49.7568L52.1568 17.816L52.8528 20L53.5248 17.816L55.9249 11.72H59.3568Z" fill="currentColor"/><path d="M67.2028 14.264C65.4748 14.264 64.2268 15.584 64.2268 17.384C64.2268 19.16 65.4748 20.48 67.2028 20.48C68.8828 20.48 70.0348 19.232 70.0348 17.384C70.0348 15.512 68.8828 14.264 67.2028 14.264ZM61.2268 23V5.408H64.2748V11.672L64.2268 12.488C64.7308 11.816 66.2668 11.432 67.3228 11.432C71.0908 11.432 73.2028 14.192 73.2028 17.384C73.2028 20.984 71.0428 23.312 67.3228 23.312C66.4108 23.312 64.9468 22.88 64.3468 22.16L64.3708 22.808V23H61.2268Z" fill="currentColor"/><path d="M85.8911 21.56C85.0031 22.712 82.9631 23.408 81.2111 23.408C77.3951 23.408 75.2591 20.792 75.2591 17.408C75.2591 13.952 77.3711 11.432 81.0911 11.432C84.7871 11.432 86.8991 13.952 86.8991 17.408C86.8991 17.792 86.8991 18.032 86.8751 18.368H78.3791C78.5471 19.784 79.6031 20.672 81.2111 20.672C82.3631 20.672 83.4431 20.288 84.1151 19.544L85.8911 21.56ZM78.4271 16.304H83.7071C83.5631 15.032 82.5071 14.168 81.0911 14.168C79.6751 14.168 78.5471 15.032 78.4271 16.304Z" fill="currentColor"/><path d="M95.3049 14.552C94.6809 14.336 94.1289 14.264 93.4809 14.264C93.0489 14.264 92.6889 14.288 92.3529 14.432V23H89.2569V12.224C90.1929 11.744 91.8009 11.408 93.3609 11.408C94.0329 11.408 95.2329 11.48 95.9529 11.744L95.3049 14.552Z" fill="currentColor"/>
  </symbol>
  <symbol id="icon-minus" viewBox="0 0 24 24">
    <path d="M16 12L8 12" stroke="currentColor" stroke-width="1.2" stroke-linecap="round"/>
  </symbol>
  <symbol id="icon-payment" viewBox="0 0 12 18">
    <path d="M11.2229 7.98007C11.0473 7.84184 9.49689 6.13449 8.61893 5.33873C8.61519 5.33499 8.61519 5.33499 8.61519 5.33126V1.65504C8.61519 0.743462 7.87173 0 6.96015 0H1.53923C0.691158 0 0 0.694894 0 1.53923V10.1619C0 11.0735 0.743462 11.8169 1.65504 11.8169H3.23163H3.63138C3.69863 11.8169 3.75467 11.7572 3.7472 11.6899L3.66127 10.9577C3.6538 10.8979 3.60523 10.8568 3.54545 10.8568H3.39975H3.31009C3.24658 10.8568 3.19427 10.8045 3.19427 10.741V0.945205C3.19427 0.881694 3.24658 0.82939 3.31009 0.82939H6.97136C7.34122 0.82939 7.64384 1.132 7.64384 1.50187V9.50436V10.2927C7.64384 10.5467 7.46824 10.7634 7.23288 10.8306C7.22914 10.8306 7.22914 10.8306 7.2254 10.8306C6.82565 10.6139 6.35492 9.68742 6.28394 9.54172C6.27646 9.53051 6.27273 9.51557 6.27273 9.50436C6.24658 9.26899 5.98132 6.99004 4.76712 6.99004C4.7335 6.99004 4.69988 6.99004 4.66625 6.99377C4.66625 6.99377 3.69489 7.07596 4.49813 9.84433C4.49813 9.8518 4.50187 9.85554 4.50187 9.86301L4.85679 12.9303C4.85679 12.934 4.85679 12.9377 4.86052 12.9452C4.89041 13.061 5.2939 14.6264 6.33624 15.736C6.35492 15.7584 6.36613 15.7846 6.36613 15.8144V16.0797C6.36613 16.0872 6.36239 16.0909 6.35492 16.0909H6.26152C6.03362 16.0909 5.84682 16.2777 5.84682 16.5056V17.5853C5.84682 17.8132 6.03362 18 6.26152 18H10.6588C10.8867 18 11.0735 17.8132 11.0735 17.5853V16.5131C11.0735 16.2852 10.8867 16.0984 10.6588 16.0984C10.6513 16.0984 10.6476 16.0946 10.6476 16.0872C10.7933 14.7347 11.3163 10.1096 11.5965 9.7472C11.604 9.73599 11.6115 9.72478 11.6152 9.70984C11.6638 9.54172 11.9066 8.51432 11.2229 7.98007ZM1.72976 10.7484C1.72976 10.8082 1.6812 10.8531 1.62516 10.8531C1.25903 10.8531 0.960149 10.5542 0.960149 10.188V1.4944C0.960149 1.12827 1.25903 0.82939 1.62516 0.82939C1.68493 0.82939 1.72976 0.877958 1.72976 0.933997V10.7484Z" fill="currentColor"/>
  </symbol>
  <symbol id="icon-phone" viewBox="0 0 48 48">
    <g>
    <path d="M33.375 5.25H14.625C13.3306 5.25 12.2812 6.29933 12.2812 7.59375V40.4062C12.2812 41.7007 13.3306 42.75 14.625 42.75H33.375C34.6694 42.75 35.7188 41.7007 35.7188 40.4062V7.59375C35.7188 6.29933 34.6694 5.25 33.375 5.25Z" stroke="currentColor" stroke-width="2" stroke-linecap="round" stroke-linejoin="round"/>
    <path d="M22 6H26.6875" stroke="currentColor" stroke-width="3" stroke-linecap="round" stroke-linejoin="round"/>
    <path d="M24 37.7188V37.7404" stroke="currentColor" stroke-width="2.5" stroke-linecap="round" stroke-linejoin="round"/>
    <line x1="13" y1="34" x2="35" y2="34" stroke="currentColor" stroke-width="2"/>
  </g>
  </symbol>
  <symbol id="icon-plus-solid" viewBox="0 0 24 24">
    <path d="M12 0C18.6274 0 24 5.37258 24 12C24 18.6274 18.6274 24 12 24C5.37258 24 0 18.6274 0 12C0 5.37258 5.37258 0 12 0ZM12 6C11.4823 6 11.0562 6.39333 11.0049 6.89746L11 7V11H7C6.44772 11 6 11.4477 6 12C6 12.5523 6.44772 13 7 13H11V17C11 17.5523 11.4477 18 12 18C12.5523 18 13 17.5523 13 17V13H17L17.1025 12.9951C17.6067 12.9438 18 12.5177 18 12C18 11.4823 17.6067 11.0562 17.1025 11.0049L17 11H13V7L12.9951 6.89746C12.9438 6.39333 12.5177 6 12 6Z" fill="currentColor"/>
  </symbol>
  <symbol id="icon-plus" viewBox="0 0 24 24">
    <path d="M12 8L12 16" stroke="currentColor" stroke-width="1.2" stroke-linecap="round"/><path d="M16 12L8 12" stroke="currentColor" stroke-width="1.2" stroke-linecap="round"/>
  </symbol>
  <symbol id="icon-screen-size" viewBox="0 0 24 24">
    <path fill-rule="evenodd" clip-rule="evenodd" d="M6.60765 3.25032C5.76475 4.09322 5.7648 5.44979 5.76475 8.16305L5.76475 15.8371C5.76475 18.5504 5.76475 19.907 6.60769 20.7499C7.45056 21.5928 8.80714 21.5928 11.5204 21.5928L12.4796 21.5928C15.1928 21.5928 16.5495 21.5928 17.3923 20.7499C18.2352 19.907 18.2352 18.5504 18.2352 15.8372L18.2353 8.16306C18.2352 5.4498 18.2353 4.09324 17.3923 3.25032C16.5495 2.40743 15.1928 2.40743 12.4796 2.40743L11.5204 2.40743C8.80715 2.40743 7.45054 2.40743 6.60765 3.25032ZM14.3978 6.03565C14.812 6.03565 15.1478 5.69986 15.1478 5.28565C15.1478 4.87143 14.812 4.53565 14.3978 4.53565L9.60149 4.53564C9.18727 4.53565 8.85149 4.87143 8.85149 5.28564C8.85149 5.69986 9.18727 6.03565 9.60149 6.03564L14.3978 6.03565ZM11.9994 18.7155C12.7942 18.7154 13.4383 18.0712 13.4384 17.2765C13.4384 16.4819 12.7942 15.8376 11.9995 15.8376C11.2048 15.8377 10.5606 16.4819 10.5606 17.2766C10.5606 18.0712 11.2048 18.7155 11.9994 18.7155Z" fill="currentColor"/>
  </symbol>
  <symbol id="icon-search" viewBox="0 0 24 24">
    <path d="M20 20L16.2223 16.2156M18.3158 11.1579C18.3158 13.0563 17.5617 14.8769 16.2193 16.2193C14.8769 17.5617 13.0563 18.3158 11.1579 18.3158C9.2595 18.3158 7.43886 17.5617 6.0965 16.2193C4.75413 14.8769 4 13.0563 4 11.1579C4 9.2595 4.75413 7.43886 6.0965 6.0965C7.43886 4.75413 9.2595 4 11.1579 4C13.0563 4 14.8769 4.75413 16.2193 6.0965C17.5617 7.43886 18.3158 9.2595 18.3158 11.1579V11.1579Z" stroke="currentColor" stroke-linecap="round"/>
  </symbol>
  <symbol id="icon-shipping" viewBox="0 0 24 24">
    <rect width="24" height="24" rx="12" fill="black"/><path d="M11.2778 16.6127C11.0212 16.3697 10.722 16.1829 10.3952 16.0665L9.71006 13.3986L17.8697 11.1159L18.7438 14.5224L11.2778 16.6127ZM8.68012 9.38794L14.1201 7.86638L14.9948 11.274L9.55537 12.7956L8.68012 9.38794ZM8.92425 16.0153C8.77237 16.0581 8.63119 16.1188 8.49394 16.1858L6.09544 6.83981H5.19319C5.10263 7.03725 4.91306 7.17619 4.68919 7.17619H3.56306C3.252 7.17619 3 6.91237 3 6.58781C3 6.26325 3.252 6 3.56306 6H4.68919C4.87819 6 5.03681 6.1035 5.13919 6.25144H6.87169V6.28012L6.89756 6.27225L9.37819 15.9377C9.22688 15.9517 9.07556 15.9737 8.92425 16.0153ZM9.06994 16.5834C10.1213 16.2893 11.2018 16.9406 11.4836 18.0392C11.7654 19.1366 11.1416 20.265 10.0898 20.5592C9.03844 20.8523 7.95787 20.2009 7.67606 19.1034C7.39425 18.006 8.01863 16.8776 9.06994 16.5834ZM8.7735 18.8351C8.89388 19.3054 9.35738 19.5844 9.80794 19.4578C10.2585 19.3312 10.5257 18.8481 10.4053 18.3778C10.2849 17.9076 9.82144 17.6286 9.37088 17.754C8.91975 17.8806 8.65256 18.3643 8.7735 18.8351ZM18.6735 16.5216L12.1012 18.3598C12.0894 18.2029 12.0675 18.0443 12.027 17.8862C11.9871 17.7281 11.9291 17.5796 11.8644 17.4367L18.4024 15.6086L18.6735 16.5216Z" fill="currentColor"/>
  </symbol>
  <symbol id="icon-shop" viewBox="0 0 24 24">
    <path fill="currentColor" d="M9.42236 0.75C8.71961 0.75 8.48486 0.90825 8.48486 1.6875V2.39025H6.37511C4.98986 2.39025 4.73486 2.646 4.73486 4.0305V21.609C4.73486 22.9942 4.99061 23.2493 6.37511 23.2493H17.6251C19.0104 23.2493 19.2654 22.9935 19.2654 21.609V4.0305C19.2654 2.64525 19.0096 2.39025 17.6251 2.39025H15.5154V1.6875C15.5154 0.909 15.2814 0.75 14.5779 0.75H9.42236ZM6.37511 5.67225C6.37511 3.79725 6.14111 4.032 8.01536 4.032C8.95286 4.032 15.2814 4.032 15.9841 4.032C17.8591 4.032 17.6244 3.798 17.6244 5.67225C17.6244 6.60975 17.6244 19.032 17.6244 19.9695C17.6244 21.8445 17.8584 21.6097 15.9841 21.6097C15.0466 21.6097 8.95286 21.6097 8.01536 21.6097C6.14036 21.6097 6.37511 21.8438 6.37511 19.9695C6.37511 19.0312 6.37511 6.60975 6.37511 5.67225ZM7.54661 8.9535H16.4529C16.7116 8.9535 16.9216 9.1635 16.9216 9.42225V12.0007C16.9216 12.2595 16.7116 12.4695 16.4529 12.4695H7.54661C7.28786 12.4695 7.07786 12.2595 7.07786 12.0007V9.42225C7.07786 9.1635 7.28786 8.9535 7.54661 8.9535ZM7.54661 13.1722H16.4529C16.7116 13.1722 16.9216 13.3822 16.9216 13.641V16.2195C16.9216 16.4782 16.7116 16.6882 16.4529 16.6882H7.54661C7.28786 16.6882 7.07786 16.4782 7.07786 16.2195V13.641C7.07786 13.3822 7.28786 13.1722 7.54661 13.1722ZM7.54661 17.391H16.4529C16.7116 17.391 16.9216 17.601 16.9216 17.8597V20.4382C16.9216 20.697 16.7116 20.907 16.4529 20.907H7.54661C7.28786 20.907 7.07786 20.697 7.07786 20.4382V17.8597C7.07786 17.601 7.28786 17.391 7.54661 17.391Z"/>
  </symbol>
  <symbol id="icon-smart-watches" viewBox="0 0 48 48">
    <g>
      <path d="M30 12H18C14.6863 12 12 14.6863 12 18V30C12 33.3137 14.6863 36 18 36H30C33.3137 36 36 33.3137 36 30V18C36 14.6863 33.3137 12 30 12Z" stroke="currentColor" stroke-width="2" stroke-linecap="round" stroke-linejoin="round"/>
      <path d="M18 36V42H30V36" stroke="currentColor" stroke-width="2" stroke-linecap="round" stroke-linejoin="round"/>
      <path d="M18 12V6H30V12" stroke="currentColor" stroke-width="2" stroke-linecap="round" stroke-linejoin="round"/>
      <line x1="20.7143" y1="18" x2="20.7143" y2="29" stroke="currentColor" stroke-width="2" stroke-linecap="round"/>
      <line x1="24.7143" y1="23" x2="24.7143" y2="29" stroke="currentColor" stroke-width="2" stroke-linecap="round"/>
      <line x1="28.7143" y1="21" x2="28.7143" y2="29" stroke="currentColor" stroke-width="2" stroke-linecap="round"/>
   </g>
  </symbol>
  <symbol id="icon-star-gradient" viewBox="0 0 20 19">
    <path d="M8.88965 1.56738C9.32935 0.623788 10.6706 0.62379 11.1104 1.56738L12.5498 4.65527C12.8742 5.35085 13.5341 5.83049 14.2959 5.92383L17.6768 6.33789C18.71 6.46449 19.1248 7.74043 18.3633 8.4502L15.8711 10.7725C15.3095 11.2959 15.0574 12.0726 15.2041 12.8262L15.8555 16.1699C16.0541 17.1915 14.9688 17.9801 14.0586 17.4756L11.0791 15.8232C10.4077 15.4509 9.59226 15.4509 8.9209 15.8232L5.94141 17.4756C5.03119 17.9801 3.94587 17.1915 4.14453 16.1699L4.7959 12.8262C4.94258 12.0726 4.69051 11.2959 4.12891 10.7725L1.63672 8.4502C0.875184 7.74043 1.28996 6.46449 2.32324 6.33789L5.7041 5.92383C6.46592 5.83049 7.12584 5.35085 7.4502 4.65527L8.88965 1.56738Z" fill="url(#paint0_linear_908_319)" stroke="currentColor"/><defs>
    <linearGradient id="paint0_linear_908_319" x1="9.11898" y1="9.85054" x2="17.8781" y2="9.85054" gradientUnits="userSpaceOnUse">
      <stop offset="0.394791" stop-color="#FFB547"/>
      <stop offset="0.394891" stop-color="#FFB547" stop-opacity="0"/>
    </linearGradient>
  </defs>
  </symbol>
  <symbol id="icon-star" viewBox="0 0 20 19">
    <path fill="currentColor" d="M8.43625 1.35577C9.0554 0.0270975 10.9446 0.0270965 11.5637 1.35577L13.0026 4.4436C13.254 4.98311 13.7658 5.35492 14.3566 5.4273L17.7379 5.84158C19.1929 6.01983 19.7767 7.81657 18.7044 8.816L16.2123 11.1387C15.7769 11.5445 15.5814 12.1461 15.6952 12.7303L16.346 16.0742C16.6261 17.513 15.0977 18.6235 13.8159 17.9125L10.8368 16.2601C10.3163 15.9714 9.68372 15.9714 9.16321 16.2601L6.18415 17.9125C4.90227 18.6235 3.37388 17.513 3.65395 16.0742L4.30485 12.7303C4.41857 12.1461 4.2231 11.5445 3.78768 11.1387L1.29562 8.816C0.223307 7.81657 0.807103 6.01983 2.26207 5.84158L5.64342 5.4273C6.23421 5.35492 6.74596 4.98311 6.99736 4.4436L8.43625 1.35577Z"/>
  </symbol>
  <symbol id="icon-tag-underline" viewBox="0 0 91 2">
    <path d="M1 1H90" stroke="currentColor"/>
  </symbol>
  <symbol id="icon-tiktok" viewBox="0 0 17 16">
    <path d="M12.5503 3.358C11.8909 2.59144 11.5455 1.60104 11.573 0.592723L9.10916 0.533203C9.10916 0.533203 9.10916 0.638323 9.10916 0.780083V10.6602C9.14356 13.786 4.205 13.7102 4.59572 10.2551C4.8346 8.88136 6.31076 8.03592 7.62244 8.51384V5.99992C4.76676 5.50264 2.06052 7.7756 2.089 10.6713C2.3386 16.9513 11.346 16.9521 11.5959 10.6713C11.533 10.4465 11.5682 6.26152 11.5592 5.90856C12.6796 6.60568 13.9831 6.95416 15.3032 6.90952V4.3132C14.0828 4.3132 13.1514 3.98872 12.5503 3.358Z" fill="currentColor"/>
  </symbol>
  <symbol id="icon-truck" viewBox="0 0 24 24">
    <path d="M21.4701 11.1849L20.4401 9.75494C20.2095 9.43115 19.9051 9.167 19.5521 8.98439C19.199 8.80178 18.8075 8.70598 18.4101 8.70494H14.0301V6.56494C14.0301 5.9019 13.7667 5.26602 13.2978 4.79717C12.829 4.32833 12.1931 4.06494 11.5301 4.06494H4.56006C3.89759 4.06679 3.26277 4.33077 2.79433 4.79921C2.32589 5.26766 2.06191 5.90247 2.06006 6.56494V16.5049C2.06006 16.9028 2.21809 17.2843 2.4994 17.5656C2.7807 17.8469 3.16223 18.0049 3.56006 18.0049H4.78006C4.85557 18.54 5.12176 19.0297 5.52966 19.3841C5.93756 19.7385 6.45972 19.9336 7.00006 19.9336C7.54039 19.9336 8.06255 19.7385 8.47045 19.3841C8.87835 19.0297 9.14455 18.54 9.22006 18.0049H14.7801C14.8556 18.54 15.1218 19.0297 15.5297 19.3841C15.9376 19.7385 16.4597 19.9336 17.0001 19.9336C17.5404 19.9336 18.0626 19.7385 18.4705 19.3841C18.8784 19.0297 19.1445 18.54 19.2201 18.0049H20.4401C20.8379 18.0049 21.2194 17.8469 21.5007 17.5656C21.782 17.2843 21.9401 16.9028 21.9401 16.5049V12.6349C21.9376 12.1146 21.7734 11.6078 21.4701 11.1849ZM7.00006 18.9349C6.75283 18.9349 6.51116 18.8616 6.3056 18.7243C6.10003 18.5869 5.93982 18.3917 5.84521 18.1633C5.7506 17.9349 5.72585 17.6836 5.77408 17.4411C5.82231 17.1986 5.94136 16.9759 6.11618 16.8011C6.29099 16.6262 6.51372 16.5072 6.7562 16.459C6.99867 16.4107 7.25001 16.4355 7.47841 16.5301C7.70682 16.6247 7.90204 16.7849 8.0394 16.9905C8.17675 17.196 8.25006 17.4377 8.25006 17.6849C8.25006 18.0165 8.11836 18.3344 7.88394 18.5688C7.64952 18.8032 7.33158 18.9349 7.00006 18.9349ZM13.0301 17.0049H9.15006C9.00446 16.5491 8.71772 16.1513 8.33126 15.869C7.9448 15.5867 7.47862 15.4346 7.00006 15.4346C6.5215 15.4346 6.05532 15.5867 5.66886 15.869C5.2824 16.1513 4.99566 16.5491 4.85006 17.0049H3.56006C3.42745 17.0049 3.30027 16.9523 3.20651 16.8585C3.11274 16.7647 3.06006 16.6375 3.06006 16.5049V6.56494C3.06006 6.16712 3.21809 5.78559 3.4994 5.50428C3.7807 5.22298 4.16223 5.06494 4.56006 5.06494H11.5301C11.9279 5.06494 12.3094 5.22298 12.5907 5.50428C12.872 5.78559 13.0301 6.16712 13.0301 6.56494V17.0049ZM17.0001 18.9349C16.7528 18.9349 16.5112 18.8616 16.3056 18.7243C16.1 18.5869 15.9398 18.3917 15.8452 18.1633C15.7506 17.9349 15.7258 17.6836 15.7741 17.4411C15.8223 17.1986 15.9414 16.9759 16.1162 16.8011C16.291 16.6262 16.5137 16.5072 16.7562 16.459C16.9987 16.4107 17.25 16.4355 17.4784 16.5301C17.7068 16.6247 17.902 16.7849 18.0394 16.9905C18.1767 17.196 18.2501 17.4377 18.2501 17.6849C18.2501 18.0165 18.1184 18.3344 17.8839 18.5688C17.6495 18.8032 17.3316 18.9349 17.0001 18.9349ZM20.9401 16.5049C20.9401 16.6375 20.8874 16.7647 20.7936 16.8585C20.6998 16.9523 20.5727 17.0049 20.4401 17.0049H19.1501C19.0045 16.5491 18.7177 16.1513 18.3313 15.869C17.9448 15.5867 17.4786 15.4346 17.0001 15.4346C16.5215 15.4346 16.0553 15.5867 15.6689 15.869C15.2824 16.1513 14.9957 16.5491 14.8501 17.0049H14.0301V9.70494H18.4101C18.6486 9.70654 18.8835 9.76443 19.0955 9.8739C19.3075 9.98337 19.4906 10.1413 19.6301 10.3349L20.6601 11.7649C20.84 12.0196 20.9377 12.3232 20.9401 12.6349V16.5049Z" fill="currentColor"/><path d="M18.0293 12.205H16.0293C15.8967 12.205 15.7695 12.1523 15.6757 12.0585C15.582 11.9647 15.5293 11.8376 15.5293 11.705C15.5293 11.5723 15.582 11.4452 15.6757 11.3514C15.7695 11.2576 15.8967 11.205 16.0293 11.205H18.0293C18.1619 11.205 18.2891 11.2576 18.3828 11.3514C18.4766 11.4452 18.5293 11.5723 18.5293 11.705C18.5293 11.8376 18.4766 11.9647 18.3828 12.0585C18.2891 12.1523 18.1619 12.205 18.0293 12.205Z" fill="currentColor"/>
  </symbol>
  <symbol id="icon-twitter" viewBox="0 0 16 16">
    <path fill-rule="evenodd" clip-rule="evenodd" d="M16 2.91193C15.4121 3.17965 14.7791 3.3607 14.1152 3.4416C14.7932 3.02556 15.3135 2.36588 15.5586 1.58004C14.9238 1.96525 14.2222 2.2455 13.4728 2.39573C12.8755 1.74183 12.0218 1.3335 11.0771 1.3335C9.26548 1.3335 7.79574 2.84066 7.79574 4.69933C7.79574 4.9632 7.82391 5.21938 7.88026 5.46592C5.15208 5.32531 2.73381 3.98668 1.11381 1.94792C0.831132 2.44677 0.669596 3.02556 0.669596 3.64191C0.669596 4.80912 1.24905 5.83958 2.12995 6.4434C1.59277 6.42703 1.08563 6.27391 0.642365 6.02352V6.06493C0.642365 7.69632 1.77402 9.0571 3.27663 9.36527C3.00147 9.44424 2.71128 9.48373 2.41169 9.48373C2.20039 9.48373 1.99378 9.46351 1.79374 9.42402C2.21166 10.7607 3.42313 11.7344 4.86001 11.7604C3.7368 12.6637 2.32059 13.202 0.783234 13.202C0.518398 13.202 0.256383 13.1866 0 13.1558C1.45284 14.1092 3.17896 14.6668 5.03187 14.6668C11.0705 14.6668 14.3715 9.53862 14.3715 5.09033C14.3715 4.94394 14.3687 4.79756 14.3631 4.65407C15.0045 4.17929 15.5614 3.58702 16 2.91193Z" fill="currentColor"/>
  </symbol>
  <symbol id="icon-user" viewBox="0 0 32 32">
    <path d="M24 27V24.3333C24 22.9188 23.5224 21.5623 22.6722 20.5621C21.8221 19.5619 20.669 19 19.4667 19H11.5333C10.331 19 9.17795 19.5619 8.32778 20.5621C7.47762 21.5623 7 22.9188 7 24.3333V27M21 9.5C21 11.9853 18.9853 14 16.5 14C14.0147 14 12 11.9853 12 9.5C12 7.01472 14.0147 5 16.5 5C18.9853 5 21 7.01472 21 9.5Z" stroke="currentColor" stroke-width="1.5" stroke-linecap="round" stroke-linejoin="round"/>
  </symbol>
  <symbol id="icon-wishlist" viewBox="0 0 32 32">
    <path d="M11 7C8.239 7 6 9.216 6 11.95C6 14.157 6.875 19.395 15.488 24.69C15.6423 24.7839 15.8194 24.8335 16 24.8335C16.1806 24.8335 16.3577 24.7839 16.512 24.69C25.125 19.395 26 14.157 26 11.95C26 9.216 23.761 7 21 7C18.239 7 16 10 16 10C16 10 13.761 7 11 7Z" stroke="currentColor" stroke-width="1.5" stroke-linecap="round" stroke-linejoin="round"/>
  </symbol>
  <symbol id="icon-youtube" viewBox="0 0 16 16">
    <path d="M8 14.6667c-1.4295 0-2.4582-0.0007-3.2602-0.0785-0.7928-0.0767-1.3-0.2245-1.7048-0.4787-0.4626-0.2906-0.8537-0.6817-1.1443-1.1443-0.2542-0.4048-0.4019-0.912-0.4787-1.7048C1.3333 10.4583 1.3333 9.4297 1.3333 8s0.0007-2.4583 0.0785-3.2603c0.0768-0.7928 0.2245-1.3 0.4787-1.7048C2.1814 2.5726 2.5725 2.1814 3.0351 1.8908c0.4048-0.2542 0.912-0.4019 1.7048-0.4787C5.5417 1.3335 6.5704 1.3335 8 1.3335s2.4583 0.0007 3.2603 0.0786c0.7928 0.0768 1.3 0.2245 1.7047 0.4787 0.4626 0.2906 0.8538 0.6818 1.1444 1.1444 0.2542 0.4048 0.4019 0.912 0.4786 1.7048 0.078 0.802 0.0787 1.8307 0.0787 3.2602s-0.0007 2.4583-0.0787 3.2604c-0.0767 0.7928-0.2244 1.3-0.4786 1.7047-0.2906 0.4626-0.6818 0.8539-1.1444 1.1445-0.4047 0.2542-0.9119 0.4019-1.7047 0.4786-0.8021 0.078-1.8308 0.0787-3.2603 0.0787z" fill="currentColor" stroke="currentColor" stroke-width="2"/><path d="M8 11.3333c1.4728 0 2.6667-1.1939 2.6667-2.6667S9.4728 6 8 6 5.3333 7.1939 5.3333 8.6667 6.5272 11.3333 8 11.3333z" fill="currentColor" stroke="black" stroke-width="2"/><circle cx="11.25" cy="4.75" r="0.75" fill="black"/>
  </symbol>
</svg>